# xmcd
#
# Track frame offsets: 
#        150
#        10569
#        29430
#        44261
#        63553
#        89289
#        109209
#        129005
#        146263
#        166730
#        182488
#        198237
#        218476
#        238158
#        267756
#        288824
#        314887
#
# Disc length: 4480 seconds
#
# Revision: 3
# Processed by: cddbd v1.5.2PL0 Copyright (c) Steve Scherf et al.
# Submitted via: ExactAudioCopy v0.99pb5
#
DISCID=e2117e11
DTITLE=Santana - Golden Collection 2000
DYEAR=1999
DGENRE=Rock
TTITLE0=Juct In Time To Se The Sun
TTITLE1=Hope You're Feeling Better
TTITLE2=Black Magic Woman
TTITLE3=Oye Como Va
TTITLE4=Let It Shine
TTITLE5=You Know That I Love You
TTITLE6=Summer Lady
TTITLE7=Stay (Beside Me)
TTITLE8=E Papa Re
TTITLE9=Winning
TTITLE10=The Sensitive Kind
TTITLE11=Gypsy Woman
TTITLE12=Peace On Earth ... Mother Earth ... Third
TTITLE13=Your Touch
TTITLE14=Life Is For Living
TTITLE15=Love Of My Life
TTITLE16=Africa Bamja
EXTD=
EXTT0=
EXTT1=
EXTT2=
EXTT3=
EXTT4=
EXTT5=
EXTT6=
EXTT7=
EXTT8=
EXTT9=
EXTT10=
EXTT11=
EXTT12=
EXTT13=
EXTT14=
EXTT15=
EXTT16=
PLAYORDER=
